<?xml version="1.0" standalone="no"?>
<!DOCTYPE svg PUBLIC "-//W3C//DTD SVG 20010904//EN"
 "http://www.w3.org/TR/2001/REC-SVG-20010904/DTD/svg10.dtd">
<svg version="1.0" xmlns="http://www.w3.org/2000/svg"
 width="410.000000pt" height="410.000000pt" viewBox="0 0 410.000000 410.000000"
 preserveAspectRatio="xMidYMid meet">
<metadata>
Created by potrace 1.11, written by Peter Selinger 2001-2013
</metadata>
<g transform="translate(0.000000,410.000000) scale(0.100000,-0.100000)"
fill="#000000" stroke="none">
<path d="M1530 4093 c-384 -61 -665 -379 -676 -768 -4 -107 -4 -107 -67 -120
-30 -7 -140 -66 -182 -99 -120 -94 -198 -219 -230 -369 -11 -51 -13 -208 -3
-247 3 -8 8 -31 12 -50 25 -109 145 -274 252 -345 128 -85 311 -130 362 -88
61 50 25 131 -62 139 -190 18 -364 172 -406 360 -61 269 127 537 398 570 28 3
56 14 70 27 23 21 23 26 16 112 -8 106 -8 95 -1 170 23 232 206 453 437 527
226 74 473 14 642 -155 38 -38 67 -71 64 -74 -3 -3 -38 -7 -78 -8 -105 -4
-231 -30 -313 -64 -332 -138 -558 -407 -630 -749 -13 -64 -15 -235 -15 -1278
l0 -1205 23 -23 c20 -19 59 -37 232 -102 72 -27 311 -85 427 -104 269 -44 491
-45 778 -4 19 3 43 7 52 10 9 3 25 7 35 9 186 38 487 157 511 202 7 13 11 223
11 617 -1 329 1 599 3 602 2 2 19 -10 37 -26 43 -40 91 -41 120 -4 41 52 30
76 -95 201 -100 100 -130 118 -168 104 -23 -9 -210 -190 -240 -233 -22 -30
-20 -60 5 -92 32 -41 79 -36 130 14 23 22 43 39 45 38 4 -5 5 -150 5 -664 l-1
-472 -82 -35 c-75 -32 -222 -81 -280 -93 -104 -22 -138 -27 -268 -42 -114 -13
-402 -5 -505 14 -10 2 -37 6 -60 9 -142 20 -398 89 -526 142 l-35 14 -1 1137
c-1 1238 -2 1218 56 1367 43 113 95 196 175 282 271 291 697 357 1053 164 72
-39 185 -131 228 -187 56 -72 85 -102 103 -106 10 -3 45 3 78 14 169 56 357
13 482 -109 135 -131 181 -329 115 -496 -75 -190 -238 -303 -438 -301 -93 1
-129 5 -141 17 -4 4 -23 7 -41 7 -26 0 -42 -8 -68 -37 -19 -21 -35 -43 -35
-48 0 -6 -30 -43 -66 -83 -258 -283 -655 -364 -1003 -205 -87 40 -154 86 -234
163 -64 60 -80 70 -110 70 -40 0 -77 -36 -77 -75 0 -43 119 -161 243 -239 301
-192 719 -204 1032 -31 117 65 242 172 312 267 35 49 36 49 77 42 305 -54 608
129 706 426 25 75 35 230 20 293 -6 23 -12 51 -14 62 -25 135 -174 318 -316
388 -41 21 -102 44 -135 52 -57 15 -203 21 -255 10 -14 -2 -37 -7 -51 -10 -23
-5 -37 5 -105 73 -130 130 -288 226 -438 267 -63 17 -67 20 -95 70 -42 73
-122 168 -189 221 -74 59 -239 138 -322 155 -63 12 -240 20 -290 12z"/>
</g>
</svg>
